<?xml version="1.0" encoding="UTF-8"?>
<svg id="katman_2" xmlns="http://www.w3.org/2000/svg" viewBox="0 0 298.95 298.97">
  <defs>
    <style>
      .cls-1 {
        fill: #9cbb8a;
      }

      .cls-2 {
        fill: #b6e969;
      }

      .cls-3 {
        fill: #bcf063;
      }

      .cls-4 {
        fill: #5d16e7;
      }

      .cls-5 {
        fill: #a5c481;
      }

      .cls-6 {
        fill: #7f76b3;
      }

      .cls-7 {
        fill: #7f80b0;
      }

      .cls-8 {
        fill: #6b4dcd;
      }

      .cls-9 {
        fill: #bcf062;
      }

      .cls-10 {
        fill: #1d1d1b;
      }

      .cls-11 {
        fill: #7465c0;
      }

      .cls-12 {
        fill: #cbfc54;
      }

      .cls-13 {
        fill: #663cd6;
      }

      .cls-14 {
        fill: #99b48e;
      }

      .cls-15 {
        fill: #8081af;
      }

      .cls-16 {
        fill: #9cbc8a;
      }

      .cls-17 {
        fill: #705bc6;
      }
    </style>
  </defs>
  <g id="katman_2-2" data-name="katman_2">
    <path class="cls-10" d="M.13,298.56c-.04-.31-.11-.61-.12-.92-.02-.7,0-1.41,0-2.11v-141.3c0-3.98.08-7.97.12-11.95.25-.3.27-.62.03-.94,1.99-35.82,16.41-68.89,40.55-94.45,15.98-16.92,34.88-29.47,56.69-37.62,7.47-2.79,15.12-4.95,22.95-6.47,3.99-.77,7.99-1.46,12.03-1.86,2.18-.21,4.35-.42,6.53-.63.24.21.46.18.66-.07,1.07-.05,2.14-.1,3.21-.14.48.31.95.28,1.41-.04,1.49-.02,2.97-.06,4.46-.06h147.76c.7,0,1.4.05,2.1.11.12,0,.25.17.32.3s.09.29.09.44c.01.7.02,1.41.02,2.11,0,48.4,0,96.81.01,145.21,0,4.38-.17,8.76-.5,13.12-.33,4.44-.91,8.86-1.65,13.26-1.79,10.67-4.72,21.02-8.8,31.04-8.38,20.59-20.74,38.45-37.04,53.56-16.72,15.5-36,26.58-57.79,33.29-6.05,1.86-12.2,3.35-18.45,4.35-1.08.17-2.16.35-3.24.52-.26-.16-.47-.11-.64.15-2.95.33-5.89.76-8.85.97-3.74.27-7.49.55-11.24.54H3.45c-.94,0-1.87-.04-2.81-.06-.08-.24-.26-.34-.5-.35h-.01Z"/>
    <g>
      <path class="cls-12" d="M223.63,145.99c1.45,22.26-5.44,41.63-21.2,57.6-12.45,12.61-27.69,19.8-45.34,21.29-22.16,1.87-41.5-4.97-57.57-20.36-13.07-12.51-20.45-28-22.03-45.99-1.93-22.02,4.8-41.28,20.03-57.32,12.61-13.28,28.2-20.84,46.47-22.36,22.44-1.86,41.93,5.12,58.03,20.86,12.92,12.62,19.93,28.18,21.6,46.29ZM121.88,152.9c0,1.17,0,2.34,0,3.52-.02,1.97-.04,3.94-.06,5.9,0,.68,0,1.37,0,2.05.04,1.63.09,3.25.61,4.82,1.17,3.51,3.82,4.76,6.7,4.92.34,0,.68,0,1.02,0,.23,0,.45.02.68.02,11.64,0,23.28,0,34.92.01,1.27,0,2.52-.06,3.79-.31,3.71-.75,5.66-3.53,5.73-6.84.03-.27.06-.53.08-.8,0-.23.02-.45.02-.68,0-6.4.02-12.8,0-19.2,0-.98.3-1.79.9-2.53,2.98-3.63,5.95-7.26,8.92-10.89.68-.83,1.37-1.66,2.04-2.51.33-.41.28-.63-.15-.79-.26-.03-.52-.1-.77-.1-9.77,0-19.54,0-29.3,0-.21,0-.42.02-.62.02-2.32,0-4.64-.02-6.95-.02-1.54,0-3.09.02-4.63.02-.07,0-.15,0-.22,0-.15,0-.31,0-.46,0-4.46.03-8.92.04-13.38.1-1.17.02-2.36.12-3.51.35-3.04.61-5.53,3.87-5.35,6.9,0,1.63,0,3.26,0,4.89,0,1.55-.02,3.09-.02,4.64,0,2.17.01,4.34.02,6.51Z"/>
      <path class="cls-4" d="M144.59,129.51c.07,0,.15,0,.22,0,.11.03.21.08.32.08,3.76,0,7.52,0,11.28,0,9.91,0,19.82,0,29.72.01.32,0,.64,0,.96-.01.42.16.48.38.15.79-.67.84-1.36,1.67-2.04,2.51-2.97,3.63-5.95,7.26-8.92,10.89-.6.74-.91,1.55-.9,2.53.02,6.4,0,12.8,0,19.2,0,.23-.01.45-.02.68-.03.27-.06.53-.08.8-.08,3.31-2.02,6.09-5.73,6.84-1.27.25-2.52.31-3.79.31-11.64,0-23.28,0-34.92-.01-.23,0-.45-.01-.68-.02-.34,0-.68,0-1.02,0-2.88-.17-5.52-1.41-6.7-4.92-.52-1.56-.58-3.19-.61-4.82,0-.68,0-1.37,0-2.05.02-1.97.04-3.94.06-5.9.03-1.18.05-2.35.08-3.53,0-3.71,0-7.42,0-11.12,0-1.55.01-3.1.02-4.64,0-.08-.06-.17-.09-.25-.18-3.03,2.31-6.29,5.35-6.9,1.15-.23,2.34-.34,3.51-.35,4.46-.07,8.92-.07,13.38-.1.15,0,.31,0,.46,0ZM158.36,158.83c.03-.12.09-.25.09-.37,0-1.19,0-2.37,0-3.56,0-.14-.07-.28-.1-.42-.27-.11-.54-.32-.82-.32-4.83-.02-9.65-.01-14.48-.01-1.91,0-3.82.01-5.73.02-.07,0-.15,0-.22,0-.19,0-.38,0-.57,0-.8.03-1.6.05-2.4.08-.11.23-.31.46-.32.7-.03,1.13-.01,2.27,0,3.41,0,.81.1.9.92.9,4.92,0,9.84,0,14.77,0,1.78,0,3.56-.01,5.34-.02.11,0,.22,0,.34,0,.15,0,.31,0,.46,0l2.43-.07c.11-.11.22-.22.33-.33ZM162.89,144.25c-.2-.04-.39-.11-.59-.11-9.19,0-18.39,0-27.58,0-.2,0-.39.07-.59.11-.12.15-.24.3-.37.44,0,.05-.01.09-.02.14,0,1.2,0,2.41,0,3.61v.14c.17.19.33.38.49.56.2.03.4.1.6.1,9.12,0,18.24,0,27.36,0,.2,0,.4-.06.6-.1.15-.15.31-.3.46-.44.03-.33.09-.66.09-.99-.01-1.01-.05-2.02-.08-3.04-.12-.14-.24-.29-.36-.43Z"/>
    </g>
    <path class="cls-15" d="M187.1,129.58c-.32,0-.64.01-.96.01-9.91,0-19.82,0-29.72-.01,0-.03,0-.05-.01-.08.21,0,.42-.02.62-.02,9.77,0,19.54,0,29.3,0,.26,0,.52.06.77.1Z"/>
    <path class="cls-17" d="M156.4,129.5s0,.05.01.08c-3.76,0-7.52,0-11.28,0-.11,0-.21-.05-.32-.08,1.54,0,3.09-.02,4.63-.02,2.32,0,4.64.01,6.95.02Z"/>
    <path class="cls-7" d="M121.96,141.76c0,3.71,0,7.42,0,11.12-.03,0-.06.01-.08.01,0-2.17-.02-4.34-.02-6.51,0-1.55.01-3.09.02-4.64.03,0,.05,0,.08,0Z"/>
    <path class="cls-11" d="M121.96,141.76s-.05,0-.08,0c0-1.63,0-3.26,0-4.89.03.08.09.17.09.25,0,1.55,0,3.1-.02,4.64Z"/>
    <path class="cls-8" d="M121.88,152.9s.06,0,.08-.01c-.03,1.18-.05,2.35-.08,3.53,0-1.17,0-2.34,0-3.52Z"/>
    <path class="cls-5" d="M121.83,162.32c0,.68,0,1.37,0,2.05,0-.68,0-1.37,0-2.05Z"/>
    <path class="cls-13" d="M129.13,174.12c.34,0,.68,0,1.02,0-.34,0-.68,0-1.02,0Z"/>
    <path class="cls-13" d="M175.27,166.99c.03-.27.06-.53.08-.8-.03.27-.06.53-.08.8Z"/>
    <path class="cls-17" d="M144.59,129.51c-.15,0-.31,0-.46,0,.15,0,.31,0,.46,0Z"/>
    <path class="cls-12" d="M133.77,144.7c.12-.15.24-.3.37-.44,9.59,0,19.17,0,28.76,0,.12.14.24.29.36.43,0,1.34,0,2.69,0,4.03-.15.15-.31.3-.46.44-9.52,0-19.03,0-28.55,0-.16-.19-.32-.38-.48-.56,0-.05,0-.09,0-.14,0-1.2,0-2.41,0-3.61,0-.05.01-.09.02-.14Z"/>
    <path class="cls-12" d="M136.52,154.17c.19,0,.38,0,.57,0,.07,0,.15,0,.22,0,1.91,0,3.82-.02,5.73-.02,4.83,0,9.65,0,14.48.01.27,0,.54.21.82.32,0,1.45.01,2.9.02,4.35-.11.11-.22.22-.33.33-.81.02-1.62.05-2.43.07-.15,0-.31,0-.46,0-.11,0-.22,0-.34,0-1.78,0-3.56.02-5.34.02-4.92,0-9.84,0-14.77,0-.83,0-.92-.09-.92-.9,0-1.14-.02-2.27,0-3.41,0-.24.21-.46.32-.7.8-.03,1.6-.05,2.4-.08Z"/>
    <path class="cls-2" d="M162.89,144.25c-9.59,0-19.17,0-28.76,0,.2-.04.39-.11.59-.11,9.19,0,18.39,0,27.58,0,.2,0,.39.07.59.11Z"/>
    <path class="cls-16" d="M134.24,149.15c9.52,0,19.03,0,28.55,0-.2.03-.4.1-.6.1-9.12,0-18.24,0-27.36,0-.2,0-.4-.07-.6-.1Z"/>
    <path class="cls-1" d="M158.36,158.83c0-1.45-.01-2.9-.02-4.35.04.14.1.28.1.42,0,1.19.01,2.37,0,3.56,0,.12-.06.25-.09.37Z"/>
    <path class="cls-14" d="M163.25,148.71c0-1.34,0-2.69,0-4.03.03,1.01.06,2.02.08,3.04,0,.33-.06.66-.09.99Z"/>
    <path class="cls-3" d="M136.52,154.17c-.8.03-1.6.05-2.4.08.8-.03,1.6-.05,2.4-.08Z"/>
    <path class="cls-9" d="M155.61,159.23c.81-.02,1.62-.05,2.43-.07-.81.02-1.62.05-2.43.07Z"/>
    <path class="cls-9" d="M154.82,159.23c.11,0,.22,0,.34,0-.11,0-.22,0-.34,0Z"/>
    <path class="cls-3" d="M137.31,154.17c-.07,0-.15,0-.22,0,.07,0,.15,0,.22,0Z"/>
    <path class="cls-6" d="M133.77,144.7s-.01.09-.02.14c0-.05.01-.09.02-.14Z"/>
    <path class="cls-6" d="M133.75,148.45s0,.09,0,.14c0-.05,0-.09,0-.14Z"/>
  </g>
</svg>