<svg xmlns="http://www.w3.org/2000/svg" xmlns:xlink="http://www.w3.org/1999/xlink" width="256" zoomAndPan="magnify" viewBox="0 0 192 191.999996" height="256" preserveAspectRatio="xMidYMid meet" version="1.0"><defs><clipPath id="599aa146dc"><path d="M 19.199219 19.199219 L 172.949219 19.199219 L 172.949219 166 L 19.199219 166 Z M 19.199219 19.199219 " clip-rule="nonzero"/></clipPath><clipPath id="3ff1abff92"><path d="M 33.292969 32.484375 L 122.910156 32.484375 L 122.910156 110.785156 L 33.292969 110.785156 Z M 33.292969 32.484375 " clip-rule="nonzero"/></clipPath><clipPath id="bce10c75fb"><path d="M 77.964844 32.484375 C 53.292969 32.484375 33.292969 50.015625 33.292969 71.636719 C 33.292969 93.257812 53.292969 110.785156 77.964844 110.785156 C 102.632812 110.785156 122.632812 93.257812 122.632812 71.636719 C 122.632812 50.015625 102.632812 32.484375 77.964844 32.484375 Z M 77.964844 32.484375 " clip-rule="nonzero"/></clipPath></defs><g clip-path="url(#599aa146dc)"><path fill="#00bf63" d="M 77.996094 19.335938 C 46.070312 19.335938 19.53125 42.527344 19.53125 71.695312 C 19.53125 85.699219 25.792969 98.414062 35.722656 107.796875 L 35.410156 109.332031 C 33.171875 115.894531 27.667969 119.601562 24.402344 120.785156 C 22.5 121.464844 20.925781 122.492188 20.054688 124.289062 C 19.195312 126.070312 19.714844 128.542969 21.015625 129.832031 C 24.0625 132.890625 28.019531 132.589844 30.910156 132.617188 C 41.777344 132.746094 54.582031 127.046875 62.339844 123.167969 L 62.429688 123.128906 L 65.085938 121.59375 L 64.070312 121.28125 L 64.1875 121.308594 C 68.507812 122.308594 73.039062 122.621094 77.488281 122.621094 C 105.5625 122.621094 129.71875 105.847656 135.054688 81.703125 L 135.054688 81.691406 C 135.769531 78.476562 136.148438 75.128906 136.148438 71.695312 C 136.148438 42.554688 109.921875 19.335938 77.996094 19.335938 Z M 77.996094 26 C 106.707031 26 129.484375 46.5625 129.484375 71.695312 C 129.484375 74.648438 129.160156 77.511719 128.546875 80.257812 C 123.992188 100.875 102.921875 115.957031 77.488281 115.957031 C 73.375 115.957031 69.328125 115.644531 65.710938 114.8125 L 64.253906 114.382812 L 59.320312 117.222656 C 51.953125 120.902344 39.25 126.058594 30.988281 125.953125 C 29.855469 125.953125 29.75 125.734375 28.957031 125.640625 C 33.695312 123.324219 39.160156 119.121094 41.761719 111.390625 L 41.816406 111.222656 L 43.011719 105.597656 L 41.542969 104.296875 C 32 95.953125 26.195312 84.382812 26.195312 71.695312 C 26.195312 46.589844 49.285156 26 77.996094 26 Z M 49.519531 49.320312 L 49.519531 55.984375 L 106.160156 55.984375 L 106.160156 49.320312 Z M 49.519531 65.980469 L 49.519531 72.644531 L 106.160156 72.644531 L 106.160156 65.980469 Z M 142.09375 79.957031 C 141.925781 81.027344 141.808594 82.09375 141.574219 83.148438 C 141.3125 84.292969 140.976562 85.414062 140.636719 86.542969 C 155.980469 92.464844 166.082031 104.402344 166.082031 117.664062 C 166.082031 127.175781 161.136719 136.066406 152.128906 142.71875 L 150.320312 144.058594 L 150.878906 146.246094 C 152.675781 153.128906 158.976562 156.683594 163.335938 159.050781 C 156.425781 159.988281 141.40625 158.425781 133.855469 149.496094 L 132.59375 147.988281 L 130.667969 148.378906 C 127.636719 148.976562 124.121094 149.277344 119.90625 149.277344 C 99.183594 149.277344 82.355469 141.246094 75.808594 129.234375 C 73.101562 129.179688 70.578125 129 68.210938 128.714844 C 74.390625 145.085938 94.265625 155.941406 119.90625 155.941406 C 123.746094 155.941406 127.089844 155.707031 130.09375 155.25 C 137.449219 162.695312 149.4375 165.921875 159.144531 165.921875 C 159.78125 165.921875 160.421875 165.910156 161.03125 165.882812 C 166.667969 165.625 170.335938 164.320312 171.964844 162.019531 C 172.679688 160.976562 172.929688 159.753906 172.640625 158.554688 C 172.082031 156.175781 169.894531 155.003906 166.863281 153.375 C 163.882812 151.761719 159.964844 149.640625 158.128906 146.480469 C 167.460938 138.773438 172.746094 128.414062 172.746094 117.664062 C 172.746094 101.316406 160.523438 86.726562 142.09375 79.957031 Z M 49.519531 82.640625 L 49.519531 89.304688 L 89.5 89.304688 L 89.5 82.640625 Z M 132.867188 102.632812 C 131.203125 104.972656 129.367188 107.210938 127.347656 109.292969 L 142.8125 109.292969 L 142.8125 102.632812 Z M 114.789062 119.289062 C 110.195312 122.050781 105.160156 124.300781 99.808594 125.953125 L 142.8125 125.953125 L 142.8125 119.289062 Z M 114.789062 119.289062 " fill-opacity="1" fill-rule="nonzero"/></g><g clip-path="url(#3ff1abff92)"><g clip-path="url(#bce10c75fb)"><path fill="#00bf63" d="M 33.292969 32.484375 L 122.601562 32.484375 L 122.601562 110.785156 L 33.292969 110.785156 Z M 33.292969 32.484375 " fill-opacity="1" fill-rule="nonzero"/></g></g></svg>